Coordinates
version=1
nRows=25
nColumns=34
inDegrees=no

Units are S.I. units (second, meters, Newtons, ...)
If the header above contains a line with 'inDegrees', this indicates whether rotational values are in degrees (yes) or radians (no).

endheader
time	pelvis_tilt	pelvis_list	pelvis_rotation	pelvis_tx	pelvis_ty	pelvis_tz	hip_flexion_r	hip_adduction_r	hip_rotation_r	knee_angle_r	ankle_angle_r	subtalar_angle_r	mtp_angle_r	hip_flexion_l	hip_adduction_l	hip_rotation_l	knee_angle_l	ankle_angle_l	subtalar_angle_l	mtp_angle_l	lumbar_extension	lumbar_bending	lumbar_rotation	arm_flex_r	arm_add_r	arm_rot_r	elbow_flex_r	pro_sup_r	arm_flex_l	arm_add_l	arm_rot_l	elbow_flex_l	pro_sup_l
0.92	0.241926	0.0687473	-0.0261198	0.961493	1.08366	-0.222715	0.221955	-0.170831	-0.0624223	0.942657	0.0408337	-0.131024	-0.0675364	-0.180332	0.1308	-0.177576	0.125126	0.172809	0.237944	-0.0782095	-0.480474	-0.0851782	-0.00846275	-0.123286	-0.158772	-0.285907	0.633264	2.17507	-0.0514803	-0.135817	-0.203679	0.665778	2.03384
0.93	0.243045	0.0657423	-0.0215959	0.973624	1.08424	-0.222936	0.22829	-0.166079	-0.0677695	0.891218	0.0523905	-0.131093	-0.0675442	-0.201166	0.12831	-0.165879	0.113491	0.177091	0.236837	-0.0781392	-0.484084	-0.0779627	-0.0173071	-0.127865	-0.15727	-0.287093	0.610123	2.17299	-0.0315007	-0.14609	-0.200753	0.686795	2.03265
0.94	0.244406	0.0633254	-0.01733	0.985813	1.08461	-0.223072	0.232066	-0.161931	-0.0748891	0.835968	0.0636393	-0.126063	-0.0675521	-0.222676	0.126285	-0.153855	0.10135	0.181386	0.235338	-0.0780688	-0.487784	-0.0716483	-0.0257643	-0.132825	-0.155767	-0.288524	0.588039	2.17077	-0.0115131	-0.156871	-0.197683	0.70756	2.03131
0.95	0.24585	0.0614547	-0.0134095	0.998079	1.08474	-0.223108	0.233543	-0.158184	-0.083767	0.777418	0.0744326	-0.115187	-0.0675599	-0.244554	0.124673	-0.141612	0.0890281	0.1858	0.233329	-0.0779985	-0.491336	-0.0662455	-0.0337002	-0.138288	-0.154207	-0.290291	0.567223	2.16854	0.00843879	-0.168076	-0.194563	0.727946	2.02991
0.96	0.247197	0.0600766	-0.00989079	1.01044	1.08461	-0.223033	0.233023	-0.154615	-0.0942832	0.716119	0.0845871	-0.0978455	-0.0675677	-0.266419	0.123396	-0.129391	0.0769338	0.190506	0.23085	-0.0779282	-0.494495	-0.0617408	-0.0409918	-0.144371	-0.152532	-0.292509	0.547911	2.16648	0.0283046	-0.179614	-0.191478	0.747879	2.02858
0.97	0.248276	0.059124	-0.00679785	1.0229	1.08422	-0.22284	0.230796	-0.150985	-0.106164	0.652656	0.0939232	-0.0737013	-0.0675756	-0.287865	0.122353	-0.117559	0.065521	0.195732	0.228116	-0.0778579	-0.497053	-0.0580888	-0.0475398	-0.151168	-0.150682	-0.295293	0.530333	2.16474	0.0480318	-0.191388	-0.188484	0.767324	2.02748
0.98	0.248955	0.0585147	-0.00411954	1.03548	1.08358	-0.222523	0.22711	-0.147049	-0.11895	0.587645	0.102302	-0.0428503	-0.0675834	-0.308508	0.121423	-0.106591	0.0552515	0.20174	0.22552	-0.0777875	-0.498864	-0.0552051	-0.0532824	-0.158727	-0.148614	-0.298723	0.514683	2.16347	0.0675656	-0.203302	-0.18561	0.786278	2.02676
0.99	0.249171	0.0581521	-0.00180787	1.04817	1.08268	-0.222083	0.222153	-0.142571	-0.131995	0.521745	0.109659	-0.00592609	-0.0675912	-0.328027	0.120463	-0.0970476	0.0465621	0.208801	0.223627	-0.0777172	-0.499863	-0.0529635	-0.0582078	-0.16704	-0.146302	-0.302814	0.501094	2.16276	0.0868433	-0.215259	-0.18286	0.804757	2.02661
1	0.248939	0.0579244	0.000220661	1.06099	1.08156	-0.221522	0.216058	-0.13735	-0.144504	0.455695	0.116034	0.0358723	-0.067599	-0.346186	0.119309	-0.0895368	0.0398417	0.217169	0.223136	-0.0776469	-0.500069	-0.0512007	-0.0623625	-0.176034	-0.143745	-0.307508	0.489611	2.16262	0.105785	-0.227166	-0.180234	0.8228	2.02724
1.01	0.248333	0.0577058	0.00207672	1.07392	1.08026	-0.220856	0.208922	-0.131249	-0.155623	0.390364	0.121578	0.0808506	-0.0676068	-0.362842	0.11779	-0.0846643	0.0354139	0.227041	0.224817	-0.0775766	-0.499571	-0.0497286	-0.0658526	-0.18558	-0.140974	-0.312672	0.480191	2.16304	0.124287	-0.238936	-0.177739	0.84047	2.0288
1.02	0.247464	0.057369	0.00388874	1.08697	1.07883	-0.220094	0.200846	-0.124221	-0.164569	0.326789	0.126544	0.12698	-0.0676147	-0.377951	0.115732	-0.0829744	0.0335238	0.238522	0.229428	-0.0775063	-0.498523	-0.0483456	-0.0688323	-0.195504	-0.138043	-0.318116	0.4727	2.16391	0.142212	-0.250491	-0.175403	0.857848	2.03145
1.03	0.246465	0.0567975	0.00578831	1.10015	1.0773	-0.219245	0.191972	-0.116315	-0.170776	0.266187	0.131234	0.172123	-0.0676225	-0.391555	0.112971	-0.0848847	0.0343253	0.251594	0.237605	-0.077436	-0.497103	-0.0468524	-0.0714829	-0.205602	-0.135027	-0.323623	0.466938	2.16513	0.159393	-0.261757	-0.173277	0.87504	2.03525
1.04	0.245474	0.0558891	0.00789317	1.11344	1.07573	-0.218321	0.182509	-0.107668	-0.174012	0.209916	0.135915	0.214261	-0.0676303	-0.40376	0.109353	-0.0906254	0.0378717	0.266083	0.249759	-0.0773657	-0.495495	-0.0450631	-0.0739842	-0.215661	-0.132013	-0.328979	0.462659	2.16654	0.175639	-0.272667	-0.171438	0.892159	2.04022
1.05	0.244617	0.054552	0.0102916	1.12685	1.07417	-0.217337	0.172719	-0.0984644	-0.174423	0.159355	0.140702	0.251689	-0.0676381	-0.414718	0.104739	-0.100194	0.0441142	0.281657	0.265981	-0.0772954	-0.493857	-0.0428123	-0.0764846	-0.225471	-0.129087	-0.334006	0.459596	2.16803	0.190751	-0.283157	-0.169979	0.909319	2.04624
1.06	0.244	0.0526989	0.0130328	1.14036	1.07264	-0.216307	0.162879	-0.08888	-0.17248	0.115735	0.14545	0.283115	-0.0676458	-0.424601	0.0989962	-0.113334	0.05291	0.297832	0.285995	-0.077225	-0.492316	-0.0399575	-0.0790765	-0.23484	-0.126327	-0.338576	0.457488	2.16948	0.204534	-0.293162	-0.169	0.926615	2.05313
1.07	0.243697	0.0502461	0.0161275	1.15399	1.07119	-0.215236	0.153229	-0.0790389	-0.168849	0.079953	0.149696	0.307699	-0.0676536	-0.433586	0.092007	-0.129537	0.0640438	0.314009	0.309149	-0.0771547	-0.49095	-0.0363798	-0.0817865	-0.243606	-0.123789	-0.342624	0.456091	2.1708	0.216809	-0.302618	-0.168597	0.944113	2.06058
1.08	0.243747	0.0471226	0.0195548	1.16774	1.06986	-0.214128	0.143916	-0.0689926	-0.164234	0.0524219	0.152676	0.325041	-0.0676614	-0.441831	0.0836706	-0.148073	0.0772616	0.32952	0.334465	-0.0770844	-0.48979	-0.0319923	-0.0845809	-0.251645	-0.121502	-0.346141	0.455195	2.17191	0.227423	-0.311464	-0.168844	0.961841	2.06824
1.09	0.244146	0.0432818	0.0232733	1.18162	1.06866	-0.212988	0.134966	-0.0587264	-0.159232	0.0329892	0.153423	0.335137	-0.0676692	-0.449451	0.0739176	-0.16806	0.0923185	0.343685	0.360735	-0.0770141	-0.488812	-0.0267493	-0.0873812	-0.258883	-0.119468	-0.349163	0.454621	2.17277	0.23625	-0.319638	-0.169786	0.979784	2.07574
1.1	0.244849	0.03871	0.0272338	1.19563	1.06761	-0.211824	0.126284	-0.0481867	-0.154235	0.0209313	0.150928	0.338331	-0.067677	-0.456492	0.0627221	-0.18855	0.109033	0.355868	0.386661	-0.0769438	-0.487941	-0.0206567	-0.0900845	-0.265292	-0.117659	-0.351755	0.454231	2.17338	0.243192	-0.327087	-0.171427	0.997886	2.08275
1.11	0.245802	0.0334057	0.031396	1.2098	1.06672	-0.210623	0.117683	-0.0373241	-0.149407	0.015037	0.144329	0.335259	-0.0676847	-0.462899	0.0501195	-0.208621	0.12733	0.365512	0.410978	-0.0768734	-0.487045	-0.0137853	-0.0925827	-0.270897	-0.116024	-0.353998	0.453924	2.17374	0.24818	-0.333762	-0.173723	1.01605	2.08899
1.12	0.246907	0.0274392	0.0357208	1.22416	1.066	-0.209374	0.108922	-0.0261103	-0.14473	0.0137826	0.1331	0.326796	-0.0676925	-0.468522	0.0361945	-0.227439	0.147266	0.372139	0.432536	-0.0768031	-0.485961	-0.00625128	-0.0947714	-0.275761	-0.114499	-0.355978	0.45364	2.17389	0.251181	-0.339624	-0.176587	1.03417	2.09432
1.13	0.248049	0.0209237	0.0401717	1.2387	1.06545	-0.208068	0.0997701	-0.0145637	-0.140092	0.0155512	0.117184	0.314002	-0.0677003	-0.473116	0.0210784	-0.2443	0.169042	0.375327	0.45035	-0.0767328	-0.484514	0.00178627	-0.096554	-0.279976	-0.113016	-0.357776	0.453365	2.17389	0.252202	-0.34464	-0.179886	1.05211	2.0987
1.14	0.249108	0.0140002	0.0447091	1.25343	1.06505	-0.206703	0.0900646	-0.00275115	-0.135386	0.0188653	0.0970654	0.29804	-0.067708	-0.476347	0.00493014	-0.258673	0.192995	0.374685	0.46364	-0.0766625	-0.482545	0.0101453	-0.0978362	-0.283647	-0.111513	-0.359466	0.453128	2.17382	0.251297	-0.348787	-0.183456	1.06973	2.10219
1.15	0.249979	0.00681274	0.049283	1.26835	1.06481	-0.205276	0.0797526	0.00922827	-0.130569	0.0225824	0.0737504	0.280071	-0.0677157	-0.477819	-0.0120919	-0.270219	0.219582	0.369821	0.471839	-0.0765922	-0.47994	0.0186462	-0.098517	-0.286874	-0.109944	-0.361103	0.452991	2.17377	0.248576	-0.352047	-0.18711	1.08689	2.1049
1.16	0.250583	-0.000517377	0.0538278	1.28341	1.0647	-0.203792	0.0689067	0.0212721	-0.125684	0.0260159	0.0486641	0.261151	-0.0677235	-0.477093	-0.0298585	-0.278799	0.249348	0.360333	0.474598	-0.0765219	-0.476649	0.0271389	-0.0984808	-0.289732	-0.108292	-0.36271	0.453045	2.17382	0.244204	-0.354407	-0.190661	1.10347	2.10702
